<svg xmlns="http://www.w3.org/2000/svg" xmlns:xlink="http://www.w3.org/1999/xlink">
  <g viewBox="0 0 55 43" id="icon-arrow-big-to-left">
    <path fill-rule="evenodd" clip-rule="evenodd" d="M54.6188 23.3094H6.62118L23.8595 40.5478L21.7382 42.6691L0.87854 21.8094L21.7382 0.949745L23.8596 3.07107L6.62118 20.3094H54.6188V23.3094Z"></path>
  </g>
  <g viewBox="0 0 55 43" id="icon-arrow-big-to-right">
    <path fill-rule="evenodd" clip-rule="evenodd" d="M0 23.3094H47.9976L30.7592 40.5478L32.8806 42.6691L53.7402 21.8094L32.8805 0.949745L30.7592 3.07107L47.9976 20.3094H1.68587e-06L0 23.3094Z"></path>
  </g>
  <g viewBox="0 0 34 26" id="icon-search">
    <path fill-rule="evenodd" clip-rule="evenodd" d="M1.76821 25.3464L11.3575 19.7249C13.4939 23.0225 17.1535 25.2 21.3122 25.2C27.9109 25.2 33.25 19.7209 33.25 12.975C33.25 6.22907 27.9109 0.75 21.3122 0.75C14.7134 0.75 9.37435 6.22907 9.37435 12.975C9.37435 14.736 9.73809 16.4107 10.3932 17.9242L0.662109 23.3047L1.76821 25.3464ZM21.3122 23.1548C15.8338 23.1548 11.3825 18.6029 11.3825 12.975C11.3825 7.34707 15.8338 2.79516 21.3122 2.79516C26.7905 2.79516 31.2419 7.34707 31.2419 12.975C31.2419 18.6029 26.7905 23.1548 21.3122 23.1548Z"></path>
  </g>
  <g viewBox="0 0 33 33" id="icon-close">
    <path fill-rule="evenodd" clip-rule="evenodd" d="M14.7176 16.3951L0 31.1127L1.41422 32.5269L16.1318 17.8093L31.1128 32.7903L32.527 31.3761L17.546 16.3951L32.5269 1.41419L31.1127 -2.67029e-05L16.1318 14.9809L1.41431 0.263428L9.15527e-05 1.67764L14.7176 16.3951Z"></path>
  </g>
  <g viewBox="0 0 40 34" id="icon-telegram">
    <path fill-rule="evenodd" clip-rule="evenodd" d="M9.54035 19.5463L1.42669 17.03C-0.536575 16.4328 -0.551093 15.0921 1.86747 14.1283L37.2993 0.553994C38.9178 -0.176012 40.4795 0.940486 39.862 3.40126L33.8279 31.6526C33.4064 33.6599 32.1859 34.1402 30.4941 33.2128L21.3024 26.4656L16.8423 30.7746C16.4444 31.1594 16.1019 31.4906 15.5165 31.605C15.0348 31.7424 14.5405 31.708 14.0944 31.5293C13.4103 31.2553 12.8859 30.6625 12.6808 29.9673L9.54035 19.5463ZM32.7271 7.03825L15.6703 22.3314L15.1712 29.7671C15.083 29.8295 15.0133 29.8508 14.9661 29.8581C14.908 29.8672 14.8472 29.8607 14.7821 29.8346C14.637 29.7764 14.4974 29.6294 14.4455 29.4525L14.4445 29.4493L11.3877 19.3056L31.5696 6.6551C32.5635 6.05637 33.4757 6.37799 32.7271 7.03825Z"></path>
  </g>
  <g viewBox="0 0 40 32" id="icon-twitter">
    <path fill-rule="evenodd" clip-rule="evenodd" d="M40 4.00859C38.526 4.63774 36.9447 5.06487 35.2857 5.25534C36.9805 4.2741 38.2814 2.71566 38.8901 0.862845C37.3027 1.77482 35.5483 2.43283 33.6804 2.79069C32.1826 1.24957 30.0522 0.285645 27.6891 0.285645C23.1598 0.285645 19.4838 3.8412 19.4838 8.22215C19.4838 8.84553 19.5554 9.45159 19.6986 10.0288C12.8778 9.69979 6.83276 6.53673 2.78681 1.73442C2.08265 2.90614 1.67686 4.26833 1.67686 5.72287C1.67686 8.47612 3.12696 10.9061 5.32896 12.326C3.98628 12.2856 2.72117 11.9278 1.61122 11.3333C1.61122 11.3679 1.61122 11.3968 1.61122 11.4314C1.61122 15.2755 4.4398 18.4848 8.19335 19.2121C7.50709 19.391 6.77905 19.4891 6.03312 19.4891C5.50201 19.4891 4.98881 19.4372 4.48754 19.3448C5.53185 22.4963 8.56333 24.7936 12.1498 24.8571C9.3391 26.9869 5.80636 28.2568 1.95733 28.2568C1.29494 28.2568 0.644488 28.2164 0 28.1471C3.62823 30.3982 7.94271 31.7142 12.5794 31.7142C27.6712 31.7142 35.9242 19.6219 35.9242 9.13413C35.9242 8.78781 35.9182 8.44726 35.9003 8.10671C37.5056 6.98694 38.896 5.59012 39.994 3.99704L40 4.00859Z"></path>
  </g>
  <g viewBox="0 0 40 40" id="icon-instagram">
    <path d="M19.9921 3.60389C25.3333 3.60389 25.9603 3.6277 28.0714 3.72296C30.0238 3.81028 31.0794 4.13574 31.7857 4.41357C32.7222 4.77873 33.3889 5.20738 34.0873 5.90593C34.7857 6.60449 35.2222 7.27128 35.5794 8.20798C35.8492 8.91447 36.1825 9.97023 36.2698 11.923C36.3651 14.0345 36.3889 14.6616 36.3889 20.004C36.3889 25.3463 36.3651 25.9734 36.2698 28.0849C36.1825 30.0377 35.8571 31.0935 35.5794 31.8C35.2143 32.7367 34.7857 33.4035 34.0873 34.102C33.3889 34.8006 32.7222 35.2372 31.7857 35.5944C31.0794 35.8643 30.0238 36.1977 28.0714 36.285C25.9603 36.3802 25.3333 36.4041 19.9921 36.4041C14.6508 36.4041 14.0238 36.3802 11.9127 36.285C9.96032 36.1977 8.90476 35.8722 8.19841 35.5944C7.26191 35.2292 6.59524 34.8006 5.89683 34.102C5.19841 33.4035 4.7619 32.7367 4.40476 31.8C4.13492 31.0935 3.80159 30.0377 3.71429 28.0849C3.61905 25.9734 3.59524 25.3463 3.59524 20.004C3.59524 14.6616 3.61905 14.0345 3.71429 11.923C3.80159 9.97023 4.12698 8.91447 4.40476 8.20798C4.76984 7.27128 5.19841 6.60449 5.89683 5.90593C6.59524 5.20738 7.26191 4.77079 8.19841 4.41357C8.90476 4.14368 9.96032 3.81028 11.9127 3.72296C14.0238 3.61977 14.6587 3.60389 19.9921 3.60389ZM19.9921 0C14.5635 0 13.881 0.0238142 11.746 0.119071C9.61905 0.214328 8.16667 0.555666 6.89683 1.04783C5.57937 1.55586 4.46825 2.24648 3.35714 3.35781C2.24603 4.46914 1.56349 5.58841 1.04762 6.89819C0.555556 8.16829 0.214286 9.62096 0.119048 11.7563C0.0238095 13.8837 0 14.5664 0 19.996C0 25.4257 0.0238095 26.1084 0.119048 28.2437C0.214286 30.3711 0.555556 31.8238 1.04762 33.1018C1.55556 34.4195 2.24603 35.5309 3.35714 36.6422C4.46825 37.7535 5.5873 38.4362 6.89683 38.9522C8.16667 39.4443 9.61905 39.7857 11.754 39.8809C13.8889 39.9762 14.5635 40 20 40C25.4365 40 26.1111 39.9762 28.246 39.8809C30.373 39.7857 31.8254 39.4443 33.1032 38.9522C34.4206 38.4441 35.5317 37.7535 36.6429 36.6422C37.754 35.5309 38.4365 34.4116 38.9524 33.1018C39.4444 31.8317 39.7857 30.379 39.881 28.2437C39.9762 26.1084 40 25.4336 40 19.996C40 14.5584 39.9762 13.8837 39.881 11.7484C39.7857 9.62096 39.4444 8.16829 38.9524 6.89026C38.4444 5.57253 37.754 4.4612 36.6429 3.34987C35.5317 2.23854 34.4127 1.55586 33.1032 1.03989C31.8333 0.547728 30.381 0.20639 28.246 0.111133C26.1032 0.0238143 25.4206 0 19.9921 0Z"></path>
    <path d="M19.9921 9.7321C14.3254 9.7321 9.72222 14.3282 9.72222 20.004C9.72222 25.6797 14.3175 30.2759 19.9921 30.2759C25.6667 30.2759 30.2619 25.6797 30.2619 20.004C30.2619 14.3282 25.6667 9.7321 19.9921 9.7321ZM19.9921 26.664C16.3095 26.664 13.3254 23.6793 13.3254 19.996C13.3254 16.3128 16.3095 13.328 19.9921 13.328C23.6746 13.328 26.6587 16.3128 26.6587 19.996C26.6587 23.6793 23.6746 26.664 19.9921 26.664Z"></path>
    <path d="M30.6667 11.7166C31.9904 11.7166 33.0635 10.6433 33.0635 9.3193C33.0635 7.99531 31.9904 6.922 30.6667 6.922C29.343 6.922 28.2699 7.99531 28.2699 9.3193C28.2699 10.6433 29.343 11.7166 30.6667 11.7166Z"></path>
  </g>
  <g viewBox="0 0 40 26" id="icon-vk">
    <path fill-rule="evenodd" clip-rule="evenodd" d="M38.4267 25.0832H34.0581C32.404 25.0832 31.895 23.7501 28.9261 20.697C26.3388 18.16 25.1937 17.816 24.5575 17.816C23.6668 17.816 23.4123 18.074 23.4123 19.321V23.3201C23.4123 24.3951 23.073 25.0402 20.2737 25.0402C15.6506 25.0402 10.5186 22.2021 6.91341 16.9129C1.48448 9.17273 0 3.36757 0 2.16354C0 1.51852 0.254481 0.916504 1.48447 0.916504H5.85307C6.95583 0.916504 7.37996 1.43252 7.8041 2.63655C9.96719 8.95773 13.5723 14.5049 15.0568 14.5049C15.6082 14.5049 15.8627 14.2469 15.8627 12.8278V6.29165C15.693 3.28157 14.1237 3.02356 14.1237 1.94853C14.1237 1.43251 14.5479 0.916504 15.2265 0.916504H22.0975C23.0306 0.916504 23.3699 1.43252 23.3699 2.55055V11.3658C23.3699 12.3118 23.794 12.6558 24.0485 12.6558C24.5999 12.6558 25.0664 12.3118 26.0843 11.2798C29.2229 7.71069 31.4709 2.20654 31.4709 2.20654C31.7678 1.56152 32.2767 0.959505 33.3795 0.959505H37.7481C39.0629 0.959505 39.3598 1.64752 39.0629 2.59355C38.5115 5.17362 33.1674 12.8278 33.1674 12.8278C32.7009 13.6019 32.5312 13.9459 33.1674 14.8059C33.634 15.4509 35.1609 16.7839 36.1788 17.988C38.045 20.138 39.487 21.9441 39.8688 23.1911C40.2929 24.4382 39.6567 25.0832 38.4267 25.0832Z"></path>
  </g>
  <g viewBox="0 0 40 40" id="icon-facebook">
    <path d="M40 20.1218C40 9.00766 31.0469 0 20 0C8.95313 0 0 9.00766 0 20.1218C0 30.167 7.3125 38.4909 16.875 40V25.9383H11.7969V20.1218H16.875V15.6887C16.875 10.6465 19.8594 7.86009 24.4297 7.86009C26.6172 7.86009 28.9062 8.2531 28.9062 8.2531V13.205H26.3828C23.8984 13.205 23.125 14.7573 23.125 16.349V20.1218H28.6719L27.7852 25.9383H23.125V40C32.6875 38.4909 40 30.167 40 20.1218Z"></path>
  </g>
  <g viewBox="0 0 27 28" id="icon-send">
    <path fill-rule="evenodd" clip-rule="evenodd" d="M2.32145 2.79521L3.86049 13.0001L21.9153 13L2.32145 2.79521ZM21.9095 15L2.28824 25.2031L3.85792 15.0001L21.9095 15ZM1.98846 13.9986L0.0505867 1.14912L1.50133 0.113078L26.4621 13.1131L26.4615 14.8872L1.46137 27.8873L0.0116413 26.848L1.98846 13.9986Z"></path>
  </g>
</svg>